HIERARCHY
ROOT hip
{
  OFFSET 0 0 0
  CHANNELS 6 Xposition Yposition Zposition Zrotation Yrotation Xrotation
  JOINT abdomen
  {
    OFFSET 0 20.6881 -0.73152
    CHANNELS 3 Zrotation Xrotation Yrotation
    JOINT chest
    {
      OFFSET 0 11.7043 -0.48768
      CHANNELS 3 Zrotation Xrotation Yrotation
      JOINT head
      {
        OFFSET 0 22.1894 -2.19456
        CHANNELS 3 Zrotation Xrotation Yrotation
        End Site
        {
          OFFSET 0.14528 15.04674 0.04672
        }
      }
      JOINT rShldr
      {
        OFFSET -10.68224 17.2634 -5.8768
        CHANNELS 3 Zrotation Xrotation Yrotation
        JOINT rForeArm
        {
          OFFSET -28.1742 -1.7115 0.48768
          CHANNELS 3 Zrotation Xrotation Yrotation
          JOINT rHand
          {
            OFFSET -22.5879 0.773209 7.07136
            CHANNELS 3 Zrotation Xrotation Yrotation
            End Site
            {
              OFFSET -1.2192 -0.487915 3.41376
            }
          }
        }
      }
      JOINT lShldr
      {
        OFFSET 10.68224 17.2634 -3.8768
        CHANNELS 3 Zrotation Xrotation Yrotation
        JOINT lForeArm
        {
          OFFSET 28.1742 -1.7115 0.48768
          CHANNELS 3 Zrotation Xrotation Yrotation
          JOINT lHand
          {
            OFFSET 22.5879 0.773209 7.07136
            CHANNELS 3 Zrotation Xrotation Yrotation
            End Site
            {
              OFFSET 1.2192 -0.487915 3.41376
            }
          }
        }
      }
    }
  }
  JOINT rThigh
  {
    OFFSET -8.77824 4.35084 1.2192
    CHANNELS 3 Zrotation Xrotation Yrotation
    JOINT rShin
    {
      OFFSET 0 -36.8199 0.73152
      CHANNELS 3 Zrotation Xrotation Yrotation
      JOINT rFoot
      {
        OFFSET 0.73152 -45.1104 -5.12064
        CHANNELS 3 Zrotation Xrotation Yrotation
        End Site
        {
          OFFSET -1.1221 -3.69964 12.103
        }
      }
    }
  }
  JOINT lThigh
  {
    OFFSET 8.77824 4.35084 1.2192
    CHANNELS 3 Zrotation Xrotation Yrotation
    JOINT lShin
    {
      OFFSET 0 -36.8199 0.73152
      CHANNELS 3 Zrotation Xrotation Yrotation
      JOINT lFoot
      {
        OFFSET -0.73152 -45.1104 -5.12064
        CHANNELS 3 Zrotation Xrotation Yrotation
        End Site
        {
          OFFSET 1.1221 -3.69964 12.103
        }
      }
    }
  }
}
MOTION
Frames:	20
Frame Time:	0.00833333
-3.81469 81.0063 -89.5702 -365.655 -147.216 8.0418 -10.7361 1.03383 -1.35173 0.85309 -9.69427 -0.680832 -6.36452 -32.2087 10.4973 100.984 44.761 -44.5425 -19.5177 -12.417 37.5216 -0.142789 -10.7103 -1.52319 -72.8765 36.64 17.0271 23.5765 -18.3265 -48.2965 1.08475 -28.185 4.31904 -8.01206 -29.7544 -1.74975 -3.00773 74.5577 3.29604 -0.365147 8.81301 -3.89592 -8.53714 -27.6615 -2.74906 0.341549 39.5765 -0.300248 3.00955 -14.1093 8.7757
-4.46853 81.0452 -90.2152 -365.905 -146.887 8.1105 -10.763 1.07348 -1.52745 0.894446 -9.67274 -0.716213 -6.35751 -32.0657 10.3651 101.181 44.6734 -44.6441 -19.5224 -12.4228 37.533 -0.144305 -10.7649 -1.53115 -72.5625 36.889 16.7074 23.8722 -18.8613 -49.1998 1.14359 -28.8638 4.44278 -8.00468 -31.2249 -2.16333 -3.02544 74.665 3.33992 -0.428193 7.66768 -4.0369 -8.89824 -26.7298 -2.95485 0.32497 39.2281 -0.341968 3.05175 -14.4908 8.68967
-5.15963 81.0761 -90.8954 -366.136 -146.474 8.1254 -10.769 1.115 -1.6604 0.896717 -9.63632 -0.741658 -6.15393 -31.78 10.2796 101.309 44.5061 -44.6627 -19.5323 -12.4346 37.5567 -0.145363 -10.8022 -1.5366 -72.209 37.2131 16.3688 24.1661 -19.4121 -50.1323 1.20713 -29.5701 4.57338 -8.03794 -32.6491 -2.60011 -2.99203 74.5831 3.33377 -0.489491 6.60964 -4.13937 -9.24261 -25.7829 -3.14199 0.308158 38.8776 -0.386928 3.0886 -14.8662 8.58811
-5.88489 81.1008 -91.6071 -366.395 -146.07 8.2099 -10.7928 1.16001 -1.79281 0.910188 -9.58791 -0.765825 -5.90739 -31.4916 10.2169 101.409 44.3622 -44.6622 -19.5504 -12.4566 37.6 -0.14683 -10.8559 -1.54442 -71.8526 37.5493 16.0265 24.4531 -19.9696 -51.0746 1.27202 -30.2619 4.7033 -8.12944 -34.0095 -3.02943 -2.91665 74.3329 3.28534 -0.548779 5.615 -4.19964 -9.58204 -24.8282 -3.3011 0.29157 38.5247 -0.432881 3.11229 -15.2384 8.44974
-6.55446 81.108 -92.254 -366.703 -145.861 8.4379 -10.8729 1.21009 -1.96689 0.985162 -9.53042 -0.797371 -5.77192 -31.3405 10.1528 101.521 44.3446 -44.7054 -19.58 -12.4926 37.6699 -0.149615 -10.9594 -1.55951 -71.532 37.8345 15.6969 24.7295 -20.5271 -52.0072 1.33402 -30.8974 4.82447 -8.29258 -35.2896 -3.41814 -2.81072 73.9353 3.20461 -0.605949 4.65988 -4.21402 -9.92908 -23.8734 -3.42311 0.27573 38.1691 -0.477625 3.11444 -15.6102 8.25312
-7.23935 81.0898 -92.8989 -367.183 -145.646 8.7192 -11.0515 1.26243 -2.21432 1.14865 -9.45229 -0.843577 -5.79151 -31.4148 10.1016 101.654 44.5137 -44.8152 -19.6232 -12.5453 37.7727 -0.154724 -11.1465 -1.58678 -71.2611 38.0316 15.3661 24.9932 -21.0807 -52.9249 1.38983 -31.4528 4.93168 -8.57219 -36.4881 -3.77313 -2.68279 73.4095 3.10069 -0.656439 3.74441 -4.13385 -10.3257 -22.9189 -3.50956 0.260768 37.8232 -0.521944 3.08541 -15.9883 7.9698
-7.94341 81.063 -93.6045 -367.519 -145.301 8.839 -11.2971 1.31724 -2.50578 1.36939 -9.35608 -0.898151 -5.88386 -31.623 10.0689 101.787 44.8034 -44.9582 -19.6777 -12.6119 37.9031 -0.161641 -11.3908 -1.62248 -71.0197 38.1807 15.0323 25.2462 -21.6346 -53.8398 1.44126 -31.9546 5.02951 -8.94066 -37.6133 -4.10348 -2.53295 72.7397 2.9741 -0.695904 2.87871 -3.97711 -10.7553 -21.9612 -3.56542 0.246422 37.4829 -0.566573 3.02984 -16.369 7.61812
-8.6419 81.0621 -94.2738 -367.853 -144.964 9.0007 -11.5379 1.38061 -2.792 1.61023 -9.26586 -0.949409 -6.01355 -31.8358 10.0167 101.922 45.1267 -45.1116 -19.7395 -12.6877 38.0515 -0.168891 -11.6367 -1.6585 -70.7962 38.3349 14.7302 25.4919 -22.1951 -54.7578 1.49163 -32.4367 5.12438 -9.29733 -38.6639 -4.37587 -2.36238 71.8948 2.82434 -0.729211 2.0543 -3.83989 -11.1438 -21.0018 -3.58693 0.232662 37.1234 -0.609255 2.96142 -16.7399 7.24694
-9.37044 81.0514 -94.8817 -368.5 -144.606 9.2946 -11.7023 1.45867 -3.02371 1.83384 -9.20571 -0.985692 -6.14519 -31.9239 9.90668 102.054 45.3969 -45.2499 -19.8049 -12.7684 38.2083 -0.174731 -11.8283 -1.68664 -70.578 38.5473 14.4941 25.7329 -22.7678 -55.6854 1.5448 -32.9328 5.2231 -9.53881 -39.6388 -4.55512 -2.17457 70.8436 2.65318 -0.766758 1.2631 -3.81804 -11.4173 -20.0424 -3.57037 0.21944 36.7198 -0.647726 2.89551 -17.0886 6.90558
-10.0379 81.0015 -95.539 -368.985 -144.333 9.4596 -11.7345 1.54321 -3.17172 2.02964 -9.18573 -0.998113 -6.23262 -31.8154 9.73124 102.184 45.5984 -45.3706 -19.8765 -12.8574 38.3802 -0.178191 -11.9404 -1.7031 -70.371 38.8377 14.3643 25.9754 -23.3707 -56.6475 1.60707 -33.5002 5.33728 -9.56665 -40.5592 -4.59972 -1.97664 69.5662 2.46766 -0.824767 0.443941 -3.9816 -11.5198 -19.1052 -3.50425 0.207172 36.2872 -0.683022 2.84964 -17.4265 6.63546
-10.6345 80.9982 -96.2843 -369.015 -144.192 9.364 -11.6853 1.63427 -3.26766 2.21763 -9.19185 -0.994832 -6.30512 -31.5914 9.51097 102.314 45.7751 -45.485 -19.9548 -12.9553 38.5694 -0.180196 -12.006 -1.71275 -70.1801 39.1762 14.3132 26.2125 -23.9917 -57.6375 1.6754 -34.1047 5.46062 -9.44674 -41.4193 -4.53073 -1.77865 68.0832 2.27846 -0.90174 -0.378591 -4.26446 -11.5066 -18.1819 -3.39527 0.195755 35.8315 -0.715834 2.81244 -17.7553 6.40113
-11.2331 81.0289 -96.9842 -369.075 -143.914 9.4433 -11.6421 1.75034 -3.3535 2.40636 -9.21189 -0.989763 -6.4406 -31.3515 9.24943 102.438 45.9291 -45.5859 -20.0329 -13.0534 38.7593 -0.181734 -12.0575 -1.72031 -69.9892 39.5425 14.2725 26.4311 -24.5949 -58.6121 1.73857 -34.6432 5.57232 -9.32471 -42.178 -4.40809 -1.58783 66.4234 2.09216 -0.979102 -1.08413 -4.55801 -11.4702 -17.2281 -3.26684 0.184378 35.3146 -0.743409 2.75629 -18.0483 6.13667
-11.8327 81.0535 -97.6461 -369.446 -143.558 9.7903 -11.6923 1.90987 -3.47125 2.60436 -9.23368 -0.99682 -6.71891 -31.1955 8.94893 102.551 46.0625 -45.6659 -20.1041 -13.1432 38.9331 -0.18384 -12.1271 -1.73053 -69.7803 39.9163 14.1721 26.6227 -25.1507 -59.5239 1.78346 -35.0126 5.65014 -9.35179 -42.7937 -4.29532 -1.4088 64.6159 1.91266 -1.03039 -1.55289 -4.75312 -11.5015 -16.1996 -3.14208 0.172292 34.698 -0.76305 2.65275 -18.2786 5.77586
-12.4867 81.065 -98.3289 -370.017 -143.195 9.9726 -11.9163 2.14613 -3.64559 2.82547 -9.27152 -1.02389 -7.25964 -31.1391 8.58575 102.66 46.1828 -45.7312 -20.1663 -13.2222 39.0853 -0.187275 -12.2385 -1.74692 -69.5439 40.2999 13.98 26.7886 -25.6562 -60.3476 1.7992 -35.1384 5.67695 -9.6648 -43.2417 -4.29148 -1.24427 62.6473 1.74266 -1.03702 -1.77749 -4.7511 -11.6676 -15.0599 -3.00953 0.159326 33.9464 -0.774156 2.47508 -18.4349 5.2521
-13.2544 81.0969 -98.8887 -371.046 -142.673 10.3405 -12.2473 2.43973 -3.84972 3.06122 -9.32605 -1.06216 -7.98859 -31.1322 8.16604 102.765 46.2866 -45.7826 -20.2234 -13.2951 39.2251 -0.191373 -12.3695 -1.76621 -69.2888 40.7015 13.7364 26.9384 -26.135 -61.1098 1.79342 -35.0913 5.66698 -10.1534 -43.5486 -4.33649 -1.0947 60.5089 1.58261 -1.01235 -1.81396 -4.6328 -11.9077 -13.8406 -2.86349 0.146227 33.0886 -0.778423 2.24556 -18.5316 4.61709
-13.9202 81.1392 -99.4697 -371.862 -142.165 10.8234 -12.5518 2.73018 -4.04845 3.28678 -9.3646 -1.10051 -8.69723 -31.1761 7.73563 102.851 46.36 -45.8039 -20.2775 -13.3648 39.358 -0.194995 -12.4832 -1.78298 -69.0239 41.1094 13.4798 27.077 -26.5991 -61.8393 1.78047 -34.9865 5.64474 -10.5973 -43.7502 -4.25438 -0.959184 58.2378 1.43079 -0.976127 -1.63794 -4.55821 -12.1185 -12.6005 -2.7348 0.133762 32.1827 -0.776672 2.0098 -18.5803 3.98222
-14.3431 81.2064 -100.291 -371.618 -141.858 10.7613 -12.6982 2.95715 -4.2064 3.47741 -9.3545 -1.1278 -9.17717 -31.2726 7.34036 102.905 46.3893 -45.7791 -20.3309 -13.4337 39.4893 -0.196922 -12.5427 -1.79176 -68.7593 41.5123 13.2495 27.2078 -27.058 -62.5659 1.77458 -34.9389 5.63463 -10.7731 -43.8814 -3.86739 -0.836411 55.8708 1.28485 -0.946357 -1.22519 -4.68751 -12.193 -11.3983 -2.65331 0.122685 31.2869 -0.769662 1.8134 -18.5943 3.45893
-14.787 81.3054 -101.077 -371.436 -141.552 10.7164 -12.6168 3.10498 -4.3015 3.61493 -9.27813 -1.13785 -9.33766 -31.4623 6.98063 102.918 46.3382 -45.6818 -20.3844 -13.503 39.6215 -0.196449 -12.5277 -1.78955 -68.4831 41.9199 13.0668 27.3399 -27.5434 -63.329 1.78201 -35.0005 5.6476 -10.5692 -43.916 -3.10926 -0.72413 53.3327 1.13934 -0.907919 -0.437624 -5.03765 -12.0598 -10.2702 -2.611 0.114532 30.4398 -0.757244 1.67064 -18.5808 3.08224
-15.4167 81.3553 -101.666 -372.001 -140.996 11.0966 -12.3906 3.20582 -4.35671 3.71642 -9.1559 -1.13767 -9.30432 -31.7315 6.63464 102.9 46.2247 -45.5286 -20.4369 -13.5714 39.7513 -0.194328 -12.4614 -1.77977 -68.1955 42.3341 12.9078 27.4678 -28.0407 -64.1047 1.79445 -35.103 5.66922 -10.1263 -43.8402 -2.08385 -0.625811 50.6323 0.998217 -0.843181 0.666653 -5.53322 -11.7869 -9.17798 -2.59626 0.108973 29.6029 -0.739384 1.5581 -18.5325 2.79149
-16.037 81.3751 -102.339 -372.332 -140.398 11.1968 -12.117 3.27102 -4.4042 3.81009 -9.01213 -1.13588 -9.19118 -32.0004 6.31594 102.865 46.1162 -45.3667 -20.4871 -13.6371 39.8758 -0.191494 -12.3721 -1.7666 -67.9263 42.7318 12.7441 27.5761 -28.4923 -64.8241 1.8039 -35.1805 5.6856 -9.59836 -43.7059 -0.867424 -0.54439 47.932 0.869153 -0.763429 1.81715 -6.19541 -11.4726 -8.06998 -2.63293 0.103921 28.7176 -0.716981 1.46423 -18.4412 2.55441
